<?xml version="1.0" encoding="utf-8"?>
<!-- Generator: Adobe Illustrator 26.1.0, SVG Export Plug-In . SVG Version: 6.00 Build 0)  -->
<svg version="1.1" id="Object" xmlns="http://www.w3.org/2000/svg" xmlns:xlink="http://www.w3.org/1999/xlink" x="0px" y="0px"
	 viewBox="0 0 1200 750" style="enable-background:new 0 0 1200 750;" xml:space="preserve">
<style type="text/css">
	.st0{fill:#05AEE8;}
	.st1{clip-path:url(#SVGID_00000073685581893068935770000007193356819431703427_);}
	.st2{fill:url(#SVGID_00000107561051235547056900000018315899558729332401_);}
	.st3{fill:url(#SVGID_00000010296318806870959490000006606568045905883543_);}
	.st4{fill:url(#SVGID_00000093172352671897523960000005511413504303020416_);}
	.st5{fill:url(#SVGID_00000058552821812732930130000010861430733277341627_);}
	.st6{fill:#E1E2E3;}
</style>
<rect id="XMLID_14_" class="st0" width="1200" height="750"/>
<g>
	<g>
		<defs>
			<rect id="SVGID_1_" width="1200" height="750"/>
		</defs>
		<clipPath id="SVGID_00000183945303614312657990000006444809547796387252_">
			<use xlink:href="#SVGID_1_"  style="overflow:visible;"/>
		</clipPath>
		<g style="clip-path:url(#SVGID_00000183945303614312657990000006444809547796387252_);">
			<g>
				
					<linearGradient id="SVGID_00000092457193606403894010000017105267442419444111_" gradientUnits="userSpaceOnUse" x1="230.1" y1="48" x2="230.1" y2="255" gradientTransform="matrix(1 0 0 -1 0 752)">
					<stop  offset="0" style="stop-color:#696969"/>
					<stop  offset="3.089865e-02" style="stop-color:#169DE7"/>
					<stop  offset="1" style="stop-color:#C4C3C3"/>
				</linearGradient>
				<polygon style="fill:url(#SVGID_00000092457193606403894010000017105267442419444111_);" points="189,704 271.1,704 
					271.1,534.6 273.5,534.6 273.5,529.7 268.4,529.7 268.4,523.5 228,523.5 228,514.1 212.5,514.1 210.2,508 206.4,508 206.4,497 
					205.6,497 204.7,497 204.7,508 197.6,508 197.6,514.1 197.6,521.2 197.6,523.5 191.8,523.5 191.8,529.7 186.7,529.7 
					186.7,534.6 189,534.6 				"/>
				
					<linearGradient id="SVGID_00000002343806356598760570000000466516671653398705_" gradientUnits="userSpaceOnUse" x1="205.6" y1="255.0231" x2="205.6" y2="258.08" gradientTransform="matrix(1 0 0 -1 0 752)">
					<stop  offset="0" style="stop-color:#696969"/>
					<stop  offset="1" style="stop-color:#C4C3C3"/>
				</linearGradient>
				<path style="fill:url(#SVGID_00000002343806356598760570000000466516671653398705_);" d="M207.1,495.4c0-0.8-0.7-1.5-1.5-1.5
					s-1.5,0.7-1.5,1.5s0.7,1.5,1.5,1.5C206.4,497,207.1,496.3,207.1,495.4z"/>
				
					<linearGradient id="SVGID_00000041275389314341293540000010645939888048086944_" gradientUnits="userSpaceOnUse" x1="611.25" y1="12.6" x2="611.25" y2="349.1" gradientTransform="matrix(1 0 0 -1 0 752)">
					<stop  offset="0" style="stop-color:#8DCEE4"/>
					<stop  offset="1" style="stop-color:#0595E8"/>
				</linearGradient>
				<polygon style="fill:url(#SVGID_00000041275389314341293540000010645939888048086944_);" points="951.2,713.9 951.2,486.1 
					850.1,465.2 861.2,713.9 564.5,713.9 564.5,573.2 559,573.2 559,489 544.9,489 544.9,466.4 539.9,466.4 539.9,433.3 
					512.1,433.3 512.1,409 509.6,409 509.6,433.3 504.2,433.3 504.2,402.9 501.7,402.9 501.7,433.3 484.2,433.3 484.2,489 
					475.1,489 475.1,573.2 467.4,573.2 467.4,713.9 388.5,713.9 388.5,526.6 389.8,526.6 389.8,524.4 380.1,524.4 380.1,511.4 
					381.4,511.4 381.4,509.3 372.5,509.3 372.5,501.8 373.3,501.8 373.3,500.2 369.4,500.2 369.4,493.2 365.8,493.2 365.2,493.2 
					365.2,467.9 364.8,467.9 364.3,467.9 363.8,467.9 363.8,493.2 362.1,493.2 362.1,479.1 361.7,479.1 361.2,479.1 360.7,479.1 
					360.7,493.2 356.4,493.2 356.4,500.2 352,500.2 352,501.8 353.4,501.8 353.4,509.3 344.5,509.3 344.5,511.4 345.7,511.4 
					345.7,524.4 336,524.4 336,526.6 337.4,526.6 337.4,713.9 74.2,713.9 74.2,739.4 1148.3,739.4 1148.3,713.9 				"/>
			</g>
			
				<linearGradient id="SVGID_00000003070416286434056160000003981929047134250175_" gradientUnits="userSpaceOnUse" x1="599.6" y1="290" x2="599.6" y2="-25.2" gradientTransform="matrix(1 0 0 -1 0 752)">
				<stop  offset="0" style="stop-color:#E3E2E2"/>
				<stop  offset="1" style="stop-color:#05AEE8"/>
			</linearGradient>
			<path style="fill:url(#SVGID_00000003070416286434056160000003981929047134250175_);" d="M1129,736.9v-23h-32.3l-12.2-90.5h-1.8
				v-10.9h-6.4v10.9h-1.6v-4.1h-4.5v4.1h-9.3v-9.5h-2.6v-6.6H1040v6.6h-2.6v9.5h-2.6v54.4h-16.3v-138h-5.4v-30.3h-1.7v30.3h-4.1v-42
				h-1.7v42h-3.5v-22.7h-1.7v22.7h-31.6v97.9h-35.1v63.4h-32.8l-26.1-48c4.4-2.5,8.5-5.6,12.3-9.1l5.3,5.7c-1.1,1-1.9,2.5-1.9,4.1
				c0,3,2.4,5.5,5.5,5.5c3,0,5.5-2.4,5.5-5.5c0-3-2.4-5.5-5.5-5.5c-1.2,0-2.2,0.4-3.1,1l-5.4-5.7c0.5-0.4,0.9-0.9,1.4-1.3
				c5.6-5.6,10.2-12.1,13.4-19.1l6,2.7c-0.1,0.4-0.2,0.9-0.2,1.3c0,3,2.4,5.5,5.5,5.5c3,0,5.5-2.4,5.5-5.5c0-3-2.4-5.5-5.5-5.5
				c-2.3,0-4.3,1.5-5.1,3.5l-5.9-2.7c3.6-7.9,5.7-16.6,6-25.5l6.4,0.2c0.1,3,2.5,5.3,5.5,5.3s5.5-2.4,5.5-5.5c0-3-2.4-5.5-5.5-5.5
				c-2.9,0-5.2,2.2-5.4,5l-6.4-0.2c0-0.6,0-1.3,0-1.9c0-8-1.4-15.7-4-23l5.4-2c0.8,1.9,2.8,3.3,5,3.3c3,0,5.5-2.4,5.5-5.5
				c0-3-2.4-5.5-5.5-5.5c-3,0-5.5,2.4-5.5,5.5c0,0.6,0.1,1.1,0.2,1.6l-5.3,2c-3-8.2-7.7-15.7-13.8-22.3l4.2-3.9
				c1,0.9,2.3,1.5,3.8,1.5c3,0,5.5-2.4,5.5-5.5c0-3-2.4-5.5-5.5-5.5s-5.5,2.4-5.5,5.5c0,1.3,0.5,2.6,1.3,3.5l-4.2,3.9
				c-0.4-0.5-0.9-0.9-1.3-1.4c-6.3-6.3-13.7-11.3-21.8-14.6l2.3-5.6c0.5,0.2,1.1,0.3,1.7,0.3c3,0,5.5-2.4,5.5-5.5
				c0-3-2.4-5.5-5.5-5.5c-3,0-5.5,2.4-5.5,5.5c0,2.2,1.3,4.1,3.2,5l-2.3,5.6c-7.2-2.9-14.9-4.6-22.8-4.9l0.2-7.7c0.1,0,0.1,0,0.2,0
				c3,0,5.5-2.4,5.5-5.5c0-3-2.4-5.5-5.5-5.5c-3,0-5.5,2.4-5.5,5.5c0,2.8,2,5,4.7,5.4l-0.3,7.7c-0.6,0-1.3,0-1.9,0
				c-7.6,0-15.1,1.3-22.1,3.7l-2.2-6.3c2-0.8,3.4-2.8,3.4-5.1c0-3-2.4-5.5-5.5-5.5c-3,0-5.5,2.4-5.5,5.5c0,3,2.4,5.5,5.5,5.5
				c0.5,0,1-0.1,1.5-0.2l2.2,6.3c-8.5,3-16.4,7.8-23.2,14.1l-4-4.3c0.9-1,1.4-2.3,1.4-3.7c0-3-2.4-5.5-5.5-5.5c-3,0-5.5,2.4-5.5,5.5
				c0,3,2.4,5.5,5.5,5.5c1.4,0,2.6-0.5,3.6-1.3l4,4.3c-0.5,0.4-0.9,0.9-1.4,1.3c-5.6,5.6-10.2,12.1-13.4,19.1l-5.1-2.3
				c0.2-0.5,0.3-1.1,0.3-1.7c0-3-2.4-5.5-5.5-5.5c-3,0-5.5,2.4-5.5,5.5c0,3,2.4,5.5,5.5,5.5c2.2,0,4.1-1.3,5-3.2l5,2.3
				c-3.6,7.9-5.7,16.6-6,25.5l-6.5-0.2c-0.1-3-2.5-5.3-5.5-5.3s-5.5,2.4-5.5,5.5c0,3,2.4,5.5,5.5,5.5c2.9,0,5.2-2.2,5.4-5l6.5,0.2
				c0,0.6,0,1.3,0,1.9c0,8,1.4,15.7,4,23l-5.4,2c-0.8-1.9-2.8-3.3-5-3.3c-3,0-5.5,2.4-5.5,5.5c0,3,2.4,5.5,5.5,5.5
				c3,0,5.5-2.4,5.5-5.5c0-0.6-0.1-1.1-0.2-1.6l5.3-2c3,8.2,7.7,15.7,13.8,22.3l-4.2,3.9c-1-0.9-2.3-1.5-3.8-1.5
				c-3,0-5.5,2.4-5.5,5.5c0,3,2.4,5.5,5.5,5.5c3,0,5.5-2.4,5.5-5.5c0-1.3-0.5-2.6-1.3-3.5l4.2-3.9c0.4,0.5,0.9,0.9,1.3,1.4
				c4.3,4.3,9,7.9,14.1,10.8l-26.1,48h-21.1v-32.6h-8.6v-61.8h3.3v-1.3H681v1.3h3.3v31.2h-7.2l-6.9,35.5V556.9h-3v-42.2h-15.3v-16.1
				h-8.2v-13.5h-2.9V462h-0.7v23.1h-2.9v13.5H629v16.1h-15.2v42.2h-3.2v76.6h-23.5v67.6h-78V570.5h6.3v-2.1h-6.3v-3.7h-7.9v-6h-64.9
				v6h-7.9v3.7h-6.3v2.1h6.3v81.3h-10.6v-15.3h-65.5v18.6H338v34.7h-23.1V576.5h-7.7v-7.7h-6.1v-20.4h-1.3v20.4h-2.9v-25.5h-1.3
				v25.5H292v7.7h-1.9v113.4h-47.9v-66.5h2.2v-4.5h-14.8v-12.2H223v12.2h-6.4v-12.2h-6.4v12.2h-12.5v-12.2h-38.3v12.2h-8.9v4.5h5.1
				v25.1h-14.1V705H122v-15.1h-21.6v32.9H74.2v14.1H35.7v40.3h1127.8v-40.3H1129z M873.9,651.5l-9-16.6c2.9-1.7,5.6-3.7,8-6
				l12.9,13.8C882.2,646.1,878.2,649.1,873.9,651.5z M840.1,598.1c0.2,0.1,0.5,0.1,0.7,0.1l-1.4,42.1c-5.4-0.2-10.6-1.4-15.3-3.3
				L840.1,598.1z M823.6,636.9c-1.5-0.6-3-1.4-4.5-2.2l20.1-37c0.1,0.1,0.3,0.2,0.4,0.2L823.6,636.9z M841.4,598.3
				c0.3,0,0.5-0.1,0.7-0.1l14,39.7c-4.7,1.6-9.7,2.5-14.9,2.5c-0.4,0-0.8,0-1.2,0L841.4,598.3z M842.7,598c0.2-0.1,0.4-0.2,0.6-0.3
				l20.1,37c-2.1,1.2-4.3,2.2-6.7,3L842.7,598z M846.1,600.3l26.2,27.9c-2.4,2.2-5,4.2-7.8,5.8L846.1,600.3z M845,598.2l-0.8-1.4
				c0.1-0.1,0.2-0.2,0.2-0.3l38.2,17.6c-2.4,5.2-5.8,9.8-9.9,13.7L845,598.2z M844.7,595.9c0.1-0.3,0.2-0.5,0.2-0.8l42.1,1.4
				c-0.2,6.1-1.7,11.9-4.1,17.1L844.7,595.9z M844.9,594.5c0-0.3-0.1-0.5-0.1-0.8l39.5-14.5c1.8,4.9,2.7,10.1,2.7,15.5
				c0,0.4,0,0.8,0,1.2L844.9,594.5z M844.6,593.1c-0.1-0.3-0.3-0.5-0.5-0.7l30.7-28.8c4,4.3,7.2,9.4,9.3,15L844.6,593.1z
				 M843.7,591.9c-0.2-0.2-0.5-0.4-0.8-0.5l16-39c5.9,2.5,11.2,6.2,15.5,10.7L843.7,591.9z M842.3,591.1c-0.2-0.1-0.5-0.1-0.7-0.1
				l1.4-42.1c5.4,0.2,10.6,1.4,15.3,3.3L842.3,591.1z M841,591c-0.3,0-0.5,0.1-0.7,0.1l-14-39.7c4.7-1.6,9.7-2.5,14.9-2.5
				c0.4,0,0.8,0,1.2,0L841,591z M839.7,591.3c-0.3,0.1-0.5,0.3-0.8,0.5l-28.8-30.7c4.5-4.1,9.7-7.4,15.6-9.5L839.7,591.3z
				 M838.5,592.2c-0.2,0.2-0.3,0.4-0.5,0.7l-38.2-17.6c2.4-5.2,5.8-9.8,9.9-13.7L838.5,592.2z M837.8,593.4
				c-0.1,0.3-0.2,0.5-0.2,0.8l-42.1-1.4c0.2-6.1,1.7-11.9,4.1-17.1L837.8,593.4z M837.6,594.8c0,0.3,0.1,0.5,0.1,0.8l-39.5,14.5
				c-1.8-4.9-2.7-10.1-2.7-15.5c0-0.4,0-0.8,0-1.2L837.6,594.8z M837.9,596.2c0.1,0.2,0.2,0.4,0.4,0.6l-0.3,0.5l-30.4,28.4
				c-4-4.3-7.2-9.4-9.3-15L837.9,596.2z M837.1,598.9L818,634.1c-3.7-2.2-7-4.8-10-7.9L837.1,598.9z M818.6,635.5
				c1.5,0.8,3,1.6,4.6,2.2l-7.2,17.5c-2.2-0.9-4.3-1.9-6.4-3.1L818.6,635.5z M823.8,637.9c4.9,2,10.1,3.1,15.6,3.3l-0.6,18.9
				c-7.7-0.3-15.2-1.9-22.2-4.7L823.8,637.9z M840,641.3c0.4,0,0.8,0,1.2,0c5.3,0,10.5-0.9,15.2-2.6l6.3,17.8
				c-6.8,2.4-14.1,3.6-21.5,3.6c-0.6,0-1.2,0-1.8,0L840,641.3z M857,638.6c2.4-0.8,4.6-1.9,6.8-3.1l9,16.6c-3.1,1.7-6.2,3.1-9.5,4.3
				L857,638.6z M887.6,641c-0.4,0.4-0.9,0.9-1.3,1.3l-12.9-13.8c4.2-4,7.6-8.7,10.1-14l17.2,7.9C897.5,629.2,893.1,635.5,887.6,641z
				 M900.9,621.9l-17.2-7.9c2.4-5.4,3.9-11.3,4.1-17.5l18.9,0.6C906.4,605.8,904.4,614.1,900.9,621.9z M906.8,594.6
				c0,0.6,0,1.2,0,1.8l-18.9-0.6c0-0.4,0-0.8,0-1.2c0-5.6-1-10.9-2.8-15.8l17.7-6.5C905.4,579.3,906.8,586.9,906.8,594.6z
				 M889.3,550c5.9,6.4,10.4,13.7,13.4,21.7l-17.7,6.5c-2.1-5.7-5.4-10.9-9.4-15.3L889.3,550z M887.6,548.3c0.4,0.4,0.9,0.9,1.3,1.3
				l-13.8,12.9c-4.4-4.7-9.8-8.4-15.8-10.9l7.2-17.5C874.2,537.3,881.4,542.1,887.6,548.3z M843.7,529.1c7.7,0.3,15.2,1.9,22.2,4.7
				l-7.2,17.5c-4.9-2-10.1-3.1-15.6-3.3L843.7,529.1z M841.2,529.1c0.6,0,1.2,0,1.8,0l-0.6,18.9c-0.4,0-0.8,0-1.2,0
				c-5.3,0-10.5,0.9-15.2,2.6l-6.3-17.8C826.5,530.3,833.8,529.1,841.2,529.1z M819.1,532.9l6.3,17.8c-5.9,2.1-11.3,5.5-15.9,9.7
				l-12.9-13.8C803.2,540.5,810.9,535.8,819.1,532.9z M794.9,548.3c0.4-0.4,0.9-0.9,1.3-1.3l12.9,13.8c-4.2,4-7.6,8.7-10.1,14
				l-17.2-7.9C785,560.1,789.4,553.8,794.9,548.3z M781.5,567.4l17.2,7.9c-2.4,5.4-3.9,11.3-4.1,17.5l-18.9-0.6
				C776,583.5,778,575.1,781.5,567.4z M775.7,594.6c0-0.6,0-1.2,0-1.8l18.9,0.6c0,0.4,0,0.8,0,1.2c0,5.6,1,10.9,2.8,15.8l-17.7,6.5
				C777,609.9,775.7,602.4,775.7,594.6z M793.2,639.3c-5.9-6.4-10.4-13.7-13.4-21.7l17.7-6.5c2.1,5.7,5.4,10.9,9.4,15.3L793.2,639.3
				z M794.9,641c-0.4-0.4-0.9-0.9-1.3-1.3l13.8-12.9c3,3.2,6.4,5.9,10.2,8.1l-9,16.6C803.6,648.7,799,645.1,794.9,641z M808.7,653.7
				c2.1,1.2,4.3,2.2,6.6,3.2l-2.3,5.6c-0.5-0.2-1.1-0.3-1.7-0.3c-3,0-5.5,2.4-5.5,5.5c0,3,2.4,5.5,5.5,5.5c3,0,5.5-2.4,5.5-5.5
				c0-2.2-1.3-4.1-3.2-5l2.3-5.6c7.2,2.9,14.9,4.6,22.8,4.9l-0.2,5.7c-3,0.1-5.3,2.5-5.3,5.5s2.4,5.5,5.5,5.5c3,0,5.5-2.4,5.5-5.5
				c0-2.9-2.2-5.2-5-5.4l0.2-5.7c0.6,0,1.3,0,1.9,0c7.6,0,15.1-1.3,22.1-3.7l2,5.6c-1.9,0.9-3.2,2.8-3.2,5c0,3,2.4,5.5,5.5,5.5
				s5.5-2.4,5.5-5.5c0-3-2.4-5.5-5.5-5.5c-0.6,0-1.2,0.1-1.8,0.3l-2-5.5c3.4-1.2,6.6-2.7,9.8-4.4l25.7,47.4H783L808.7,653.7z"/>
			<g>
				<path class="st6" d="M1000.7,568.6c0-0.8-0.6-1.5-1.3-1.5s-1.3,0.7-1.3,1.5s0.6,1.5,1.3,1.5
					C1000.2,570.2,1000.7,569.5,1000.7,568.6z"/>
				<polygon class="st0" points="1140.6,754.4 1132.6,701.1 1116.3,701.1 1116.3,657 1118.3,657 1118.3,653 1110.4,653 
					1110.4,635.7 1109.5,635.7 1109.5,653 1104,653 1104,638.9 1103,638.9 1103,653 1070.1,653 1070.1,657 1072.4,657 1072.4,746.6 
					1034.8,746.6 1034.8,706.5 1013.3,706.5 1013.3,607.8 1015.3,607.8 1015.3,602.9 1011,602.9 1011,596.7 1006.1,596.7 
					1006.1,594.4 1006.1,587.3 1006.1,581.2 1000.2,581.2 1000.2,570.2 999.4,570.2 998.7,570.2 998.7,581.2 995.5,581.2 
					993.6,587.3 980.6,587.3 980.6,596.7 946.7,596.7 946.7,602.9 942.4,602.9 942.4,607.8 944.4,607.8 944.4,672 916,672 
					916,735.1 884.5,721.1 884.5,659.9 889.6,659.9 889.6,655.4 880.7,655.4 880.7,643.2 842.4,643.2 842.4,655.4 829.9,655.4 
					829.9,643.2 823.5,643.2 823.5,655.4 817,655.4 817,643.2 810,643.2 810,655.4 795.2,655.4 795.2,659.9 797.4,659.9 
					797.4,744.8 783.1,744.8 783.1,743.9 780.5,743.9 780.5,719.7 783.1,719.7 783.1,717.7 780.5,717.7 780.5,693.5 783.1,693.5 
					783.1,691.6 780.5,691.6 780.5,667.4 783.1,667.4 783.1,665.5 780.5,665.5 780.5,641.3 783.1,641.3 783.1,639.4 780.5,639.4 
					780.5,615.2 783.1,615.2 783.1,613.2 780.5,613.2 780.5,588.2 784.9,588.2 784.9,586.2 787.2,586.2 787.2,580.9 744.9,580.9 
					744.9,575 746.3,575 746.3,573.3 723.3,573.3 723.3,575 724.7,575 724.7,580.9 714.2,580.9 714.2,586.2 716.5,586.2 
					716.5,588.2 720.9,588.2 720.9,613.2 718.3,613.2 718.3,615.2 720.9,615.2 720.9,639.4 718.3,639.4 718.3,641.3 720.9,641.3 
					720.9,665.5 718.3,665.5 718.3,667.4 720.9,667.4 720.9,691.6 718.3,691.6 718.3,693.5 720.9,693.5 720.9,717.7 718.3,717.7 
					718.3,719.7 720.9,719.7 720.9,743.9 718.3,743.9 718.3,745.8 720.9,745.8 720.9,765.6 706.5,765.6 706.5,689.2 648.4,689.2 
					648.4,744.8 639,744.8 639,571.7 632,571.7 632,576.1 619.1,579.3 619.1,576.4 612.2,576.4 612.2,581 599.3,584.1 599.3,580.8 
					592.3,580.8 592.3,585.8 579.5,589 579.5,586.2 572.5,586.2 572.5,590.7 559.6,593.8 559.6,591.5 552.6,591.5 552.6,761.4 
					542.8,761.4 542.8,670.8 506.5,670.8 506.5,726.6 469.2,726.6 469.2,679 464.6,679 464.6,663.4 467.4,663.4 467.4,661.9 
					455.3,661.9 455.3,657 454,657 454,661.9 450.2,661.9 450.2,636.7 449.2,636.7 449.2,661.9 444.2,661.9 444.2,663.4 
					447.1,663.4 447.1,679 422.6,679 422.6,715.3 398.6,715.3 386.1,761.4 361,761.4 361,610.7 327.8,610.7 327.8,605.3 
					329.7,605.3 329.7,603.4 304.6,603.4 304.6,605.3 306.5,605.3 306.5,610.7 306.5,619.4 306.5,722.6 290.9,722.6 290.9,683.6 
					296.4,683.6 296.4,680.1 257,680.1 257,656.5 249.5,656.5 249.5,651.7 232.7,651.7 232.7,656.5 219.1,656.5 219.1,740.7 
					174.3,740.7 174.3,678.3 136.6,678.3 136.6,727.6 103.9,727.6 103.9,759.1 80.3,759.1 80.3,719.5 49.2,719.5 49.2,753.2 
					21.1,753.2 21.1,777.2 49.2,777.2 58.7,777.2 74.2,777.2 80.3,777.2 103.9,777.2 136.6,777.2 147.6,777.2 153.5,777.2 
					174.3,777.2 219.1,777.2 232.7,777.2 249.5,777.2 257,777.2 286.4,777.2 290.9,777.2 306.5,777.2 332.8,777.2 345.7,777.2 
					361,777.2 422.6,777.2 436.8,777.2 460.7,777.2 469.2,777.2 507.1,777.2 517.3,777.2 552.6,777.2 556.1,777.2 559.6,777.2 
					572.5,777.2 579.5,777.2 592.3,777.2 598.2,777.2 599.3,777.2 612.2,777.2 619.1,777.2 630.2,777.2 632,777.2 635.5,777.2 
					639,777.2 648.4,777.2 696.4,777.2 703.3,777.2 706.5,777.2 720.9,777.2 746.3,777.2 769.6,777.2 780.5,777.2 797.4,777.2 
					839.6,777.2 884.1,777.2 884.5,777.2 916,777.2 933.6,777.2 944.4,777.2 951.2,777.2 1003.9,777.2 1013.3,777.2 1024.6,777.2 
					1034.8,777.2 1072.4,777.2 1100.3,777.2 1106,777.2 1116.3,777.2 1178.9,777.2 1178.9,754.4 				"/>
			</g>
		</g>
	</g>
</g>
</svg>
