<?xml version="1.0" encoding="utf-8"?>
<!-- Generator: Adobe Illustrator 26.0.3, SVG Export Plug-In . SVG Version: 6.00 Build 0)  -->
<svg version="1.1" id="Layer_1" xmlns="http://www.w3.org/2000/svg" xmlns:xlink="http://www.w3.org/1999/xlink" x="0px" y="0px"
	 viewBox="0 0 1907.2 340.4" style="enable-background:new 0 0 1907.2 340.4;" xml:space="preserve">
<style type="text/css">
	.st0{display:none;fill:#4498D7;}
	.st1{fill:#FDFDFD;}
	.st2{fill:#FDFEFE;}
	.st3{fill:#FDFEFD;}
	.st4{fill:#FBFCFD;}
	.st5{fill:#4682A9;}
	.st6{fill:#A0D1EC;}
	.st7{fill:#497FA4;}
	.st8{fill:#487EA4;}
	.st9{fill:none;}
	.st10{fill:#9CCFEA;}
	.st11{fill:#A1D1EC;}
	.st12{fill:#9DD2ED;}
	.st13{fill:#A1D2ED;}
	.st14{fill:#EB6560;}
	.st15{fill:#FEFEFE;}
</style>
<rect class="st0" width="2391.5" height="340.4"/>
<g>
	<path class="st1" d="M1702.3,71.1c0,64.4,0,128.7,0.2,193.1c0,4.6-1.2,6.4-5.9,6.6c-6.7,0.4-11.5-1.6-16-7.1
		c-22.2-27-45-53.6-67.5-80.3c-14.6-17.4-29.2-34.9-43.9-52.3c-1.4-1.6-2.7-4.4-5.2-3.6c-3.1,1-2,4.2-2,6.5
		c-0.1,41.9,0,83.8-0.1,125.8c0,9.9-0.2,10.2-9.6,10.1c-18-0.3-16.2,3.1-16.3-16.8c-0.1-57.5-0.1-115,0.1-172.5
		c0-3.7-2.4-9.5,2.8-10.7c5.5-1.4,11.7-2.2,16.5,3.7c13.6,16.6,27.5,32.9,41.3,49.3c23.8,28.3,47.5,56.7,71.3,85
		c1.8,2.1,3.3,6.1,6.5,4.9c3.3-1.2,1.8-5.2,1.8-8c0.1-41,0-82,0.1-123c0-10.7,0-10.7,10.7-10.7c5.1,0,10.2,0.1,15.3,0.1L1702.3,71.1
		z"/>
	<path class="st1" d="M792.8,218.2c-23.2-27.6-46.4-55.2-69.8-82.7c-2.6-3.1-5-9-9.3-7.4c-4,1.5-1.8,7.4-1.8,11.3
		c-0.1,40.5-0.1,81.1-0.1,121.6c0,8.7-0.4,9.2-8.5,9c-19.4-0.3-17.4,3.1-17.5-17.7c-0.1-57.5-0.1-114.9,0.1-172.4
		c0-3.5-2.1-8.9,3.1-9.9c5.2-1,11.1-2.5,15.5,2.8c6.8,8.1,13.7,16.1,20.5,24.3c24.7,29.6,49.4,59.2,74.1,88.8
		c7.4,8.8,15,17.4,22.5,26.1c1,1.1,1.8,3.2,3.6,2.2c0.9-0.5,1.4-2.3,1.5-3.6c0.3-2.7,0.4-5.5,0.5-8.2c0.1-43.7,0.2-87.5,0.2-131.2
		l0,0.1c6.2,0,12.4,0.2,18.6-0.1c5.2-0.3,7,1.8,6.9,7.1c-0.2,18.3-0.1,36.6-0.1,54.9c0,42.8,0.1,85.5,0,128.3c0,3.1,1.6,8.1-2.6,8.8
		c-4.9,0.8-10.8,2.9-15-2c-8.9-10.2-17.5-20.6-26.3-30.9c-2.5-3.4-5.9-5.9-8.1-9.5l0,0C798.5,224.2,795.1,221.7,792.8,218.2z"/>
	<path class="st1" d="M492.3,248.6c-12.1,11.7-26.3,19-42.6,22c-24.6,4.6-49.5,1.1-74.2,2.2c-1.5,0.1-3.4,0.5-4.1-1.3
		c-0.7-1.7,0.9-3,2-4c6.5-6.2,13-12.4,19.5-18.6c2.2-2.1,4.9-1.7,7.6-1.8c12.4-0.5,24.7,0.3,37.1-0.8c25.9-2.2,42.8-16.8,53.5-40.1
		c13.6-29.7,9.4-76.7-21.4-100.2c-8.6-6.5-18-11-28.7-11.5c-14.2-0.6-28.3-0.3-42.5-0.6c-5.4-0.1-6.1,3-6,7.4
		c0.1,22.4-0.1,44.9,0.1,67.3c0.1,5.5-1.5,9.7-5.5,13.2c-5.4,4.7-10.7,9.5-16.1,14.3c-2.4,2.2-3.9,1.9-4-1.7
		c-0.1-1.6-0.1-3.2-0.1-4.8c0-37.8,0.1-75.6-0.1-113.3c0-6.7,1.4-9.2,8.4-9.1c19.9,0.5,39.9-0.8,59.8,0.3
		c30.4,1.8,55.1,15.4,72.6,41.7c18.4,27.7,21.5,58.1,14.1,89.9c-3.6,15.4-10.5,29.5-21.4,41.1C497.9,243.3,495.3,246.1,492.3,248.6z
		"/>
	<path class="st2" d="M1234.2,124.8c-13.5-20.7-31.9-31.7-56.5-30.9c-10.2,0.3-20.4,0.3-30.6,0c-5.5-0.2-7.3,2.1-7.3,7.6
		c0.2,22.4-0.1,44.9,0.1,67.3c0.1,6-1.7,10.4-6.4,14.1c-6.1,4.8-11.7,10.2-17.6,15.4c-2.2-2.7-1.5-5.3-1.5-7.7
		c-0.1-38.2,0.1-76.5-0.2-114.7c0-6.5,1.6-8.8,8.1-8.6c20.1,0.4,40.4-0.9,60.5,0.3c30.6,1.8,55.4,15.8,73,42.3
		c26.1,39.3,22.5,96.5-8.7,131.6c-14.1,15.9-31.4,26.2-52.5,29.4c-24.3,3.7-48.6,0.8-72.9,1.8c-1.2,0-3,0.3-3.3-1.4
		c-0.1-0.9,0.7-2.2,1.5-2.9c7-6.6,14-13.2,21.1-19.8c2.2-2,5-1.5,7.6-1.6c12.6-0.5,25.2,0.4,37.8-0.9c15.8-1.6,28.6-8.7,39.8-19.7
		c7.9-9.7,14.2-20.5,17.3-32.7c2.3-9.1,3.5-18.7,2.7-28.4C1245,151,1242,137.1,1234.2,124.8z"/>
	<path class="st3" d="M1038.7,87.4c-3.4,5.2-8.2,6.8-14.3,6.6c-12-0.3-24-0.4-35.9,0.3c-19.5,1.1-34.8,10.8-45.2,27.4
		c-19.7,31.5-19.3,64.2-1,95.9c9,15.5,23.5,25.2,41.6,27.9c15,2.2,30.1,1.2,45.1,1.6c5.4,0.2,6.1-3,6.1-7.4
		c-0.1-18.1,0.1-36.2-0.2-54.3c-0.1-5.6,1.4-9.5,5.8-12.8c5-3.8,9.4-8.4,14.1-12.5c1.3-1.2,2.6-2.9,4.6-2.2c2.1,0.8,1.6,3,1.6,4.8
		c0,34.6,0,69.2,0.1,103.8c0,4.9-2.1,6.4-6.5,6.4c-21.5-0.1-43.1,1.1-64.5-0.3c-44.9-3-79.5-37.3-86.7-83.3
		c-2.7-17-1.9-33.9,2.7-50.4c9.2-33.3,36.1-63.4,73.1-69.5c24.2-4,48.6-0.9,73-1.8c1.5-0.1,3.4-0.3,4.2,1.4c1,2.2-0.9,3.3-2.2,4.4
		c-2.8,2.5-5.7,5-8.6,7.6C1043.4,83.2,1041.5,85.8,1038.7,87.4z"/>
	<path class="st2" d="M1907.2,214.4c0,16.9-0.2,33.9,0.1,50.8c0.1,5.6-1.6,7.8-7.2,7.7c-21-0.2-42.2,1.2-63.1-0.4
		c-33.6-2.4-59.8-18.9-75.9-50c-17.6-33.8-17.9-68.8-1.1-102.8c13.8-27.9,36.4-45.5,67-50.6c23.8-3.9,47.7-0.9,71.6-1.7
		c1.5,0,3.4-0.2,4,1.7c0.6,1.8-0.8,2.9-2,4c-6.6,6.1-13.1,12.3-19.7,18.4c-2.3,2.2-5.2,2.3-8.1,2.3c-11.7,0-23.5,0.3-35.2,0.1
		c-26.3-0.4-49.6,23-57,45c-5.7,17-7.2,34.2-3.3,51.3c6,26.6,23.3,50.3,53.3,55.1c15,2.4,30.1,0.9,45.1,1.5c5.3,0.2,6.2-3.1,6.2-7.5
		c-0.1-17.4,0.2-34.8-0.1-52.2c-0.2-7.3,1.6-12.6,7.8-16.8c4.6-3.1,8.4-7.4,12.5-11.2c1.1-1,2.4-2.6,4-2c2.2,0.8,1.3,3.2,1.3,4.8
		C1907.3,179.6,1907.2,197,1907.2,214.4z"/>
	<path class="st4" d="M588.3,170.8c0-30.4,0.2-60.9-0.1-91.3c-0.1-6.6,1.9-8.6,8.3-8.6c17.9,0.2,17.9-0.1,17.9,18.3
		c0,57,0,113.9,0,170.9c0,9.8,0,9.9-9.7,9.8c-18.5-0.1-16.2,2.2-16.3-16.8C588.2,225.7,588.3,198.2,588.3,170.8
		C588.3,170.8,588.3,170.8,588.3,170.8z"/>
	<path class="st5" d="M1702.3,71.2c4.1-0.4,2.6,2.9,2.7,4.7c0.2,5.9,0.1,11.9,0.1,17.8c0,55.1,0,110.3,0,165.4c0,2.7,0,5.4,0,8.2
		c-0.4,0-0.9,0.1-1.3,0.1c0-2.4,0-4.8,0-7.3c0-59.9,0-119.9,0-179.8c0-3.1,0.7-6.5-1.4-9.3C1702.3,71.1,1702.3,71.2,1702.3,71.2z"/>
	<path class="st6" d="M1234.2,124.8c6.6,5.1,8,13.3,9.8,20.4c7.4,28.2,3.3,54.7-14.2,78.3c-0.9,1.2-1.7,2.7-3.5,2.9
		c1.5-5.7,5.8-9.6,8.5-14.5c9.7-17.4,11.6-35.9,9.3-55.5C1242.9,145.1,1237.6,135.3,1234.2,124.8z"/>
	<path class="st7" d="M827.5,71.1c-2.1,2.8-1.4,6.1-1.4,9.3c0,39.8,0,79.6,0,119.4c0,2.5,0,4.9,0,8.2c-1.9-2.3-1.3-4.1-1.3-5.7
		c0-41.4-0.1-82.8,0.1-124.2C824.8,75.7,822.6,71.7,827.5,71.1C827.4,71.2,827.5,71.1,827.5,71.1z"/>
	<path class="st8" d="M1112.2,196c0-42,0-84,0-126c0.2,0,0.4,0,0.6,0c0,42,0,83.9,0,125.9C1112.6,196,1112.4,196,1112.2,196z"/>
	<ellipse class="st9" cx="365.2" cy="133" rx="0.4" ry="89.4"/>
	<path class="st10" d="M792.8,218.2c3.6,2.4,6.4,5.4,7.9,9.7C797,225.5,793.9,222.8,792.8,218.2z"/>
	<path class="st10" d="M800.7,227.8c3.6,2.3,6.6,5.2,8.1,9.5C805.2,235,802.1,232.3,800.7,227.8z"/>
	<path class="st11" d="M492.3,248.6c1.9-3.6,4.5-6.4,8-8.2C499.3,244.8,496.1,247,492.3,248.6z"/>
	<path class="st12" d="M1038.7,87.4c1.6-3,4-5.1,7-6.5C1044.7,84.6,1042.6,87,1038.7,87.4z"/>
	<path class="st1" d="M1479.6,114.2c-19.1-31.8-47.1-47.3-82.7-46.4c-36.7,0.9-64.3,19.3-80.9,53c-15.6,31.9-15.8,65.2-0.6,97.3
		c15.8,33.4,42.5,51.9,78.6,54.5c20,1.5,39.1-3.1,55.7-14.5c30-20.7,44.5-50.5,44.5-94.6C1494.5,150.1,1490,131.5,1479.6,114.2z
		 M1465.8,188.1c-3.9,19.9-13.1,36.8-29.9,48.2c-26.4,17.9-67.7,13.2-88.1-15c-25.8-35.7-19.8-92,14.6-116.4
		c3.3-2.3,6.7-4.3,10.1-6.5c13.8-5.1,28.1-6,42.4-3.4c19,3.5,32.4,15.5,42.1,32.2c1.1,2,2.3,3.9,3.4,5.8
		C1467.5,150.8,1469.5,169.3,1465.8,188.1z"/>
	<path class="st13" d="M1460.3,133c-2.2-1-3.1-3.1-4.2-5.1c-16.4-29.4-43.4-37.5-73.2-31.3c-3.4,0.7-6.8,2.1-10.4,1.8
		c18.6-8.4,37.5-7.9,55.8,0.2C1443.5,105.2,1454.3,116.9,1460.3,133z"/>
</g>
<g>
	<path class="st14" d="M6.6,304.5c-0.9,1-1.8,3-3.8,1.6c-1.3-0.9-2.3-2.1-2.2-4c0.1-1.4,0-175.4,0-261c0-0.2,0-0.5,0-0.7
		c0.3-2.4-1-5.7,1.9-6.7c3.2-1.1,63.4,62.2,69.7,70.3v0c6.7,4.2,9.6,9.8,9.4,18.5c-0.6,31.7-0.6,63.5,0,95.2
		c0.2,8.7-9.4,18.5-9.4,18.5C65.8,244.5,14.3,296.5,6.6,304.5z"/>
	<path class="st15" d="M29.1,1.6c3.8-1.5,7.1-0.9,10.4-0.9c32.3-0.1,64.7,0.2,97-0.1c19-0.2,37.4,2.5,55.1,9.7
		c3.8,1.5,6.5,2.6,3,7.5c-7.9,10.9-36.9,52.2-43.4,62c-2.5,3.7-4.8,5.8-9.6,5.5c-9.3-0.5-18.6-0.3-27.9-0.3c-3,0-5.6-0.4-7.9-2.8
		C80.8,56.1,55.5,30,30.4,4C29.9,3.5,29.7,2.8,29.1,1.6z"/>
	<path class="st15" d="M30,338.6c13.8-17.1,64.3-68,74.3-78.7c2.8-3,5.8-4.4,9.9-4.4c9.7,0,19.5,0.8,29.2-0.5
		c3.2-0.4,4.9,1.4,6.5,3.7c14.3,20.2,28.7,40.4,43,60.6c5.8,8.1,5.4,8-3.5,11.6c-19.8,8-40.4,9.2-61.3,9c-29.7-0.2-59.3,0-89-0.1
		C36.3,339.7,33.4,340.4,30,338.6z"/>
	<path class="st15" d="M297.5,146.1c0.9,4.3-1.7,5-5,5c-9.3,0-57.1,0-71.7,0c-3.6,0-6.6-0.5-7.6-4.8c-3.3-13.3-10.5-24.4-19.4-34.3
		c-10.9-12-11-11.7-1.5-25.2c11.4-15.9,22.6-32,33.8-48.1c4.7-6.7,5.2-7,11.2-1.8c19.7,16.6,40.9,45.6,46,60.5
		C289.5,109.7,295.2,135.8,297.5,146.1z"/>
	<path class="st15" d="M291.7,189.1c5.1-0.1,6.4,1.7,5.6,7c-6.8,43.6-27.2,79.1-59.9,107.2c-6.1,5.2-6.5,4.9-11.2-1.8
		c-13.6-19.3-27.3-38.7-41.2-57.8c-2.8-3.9-0.7-5.7,1.6-8c10.6-10.3,20.5-21.4,24.3-36.1c2.6-10,8.2-11.1,16.5-10.6
		C236.8,189.6,279.7,189.3,291.7,189.1z"/>
	<path class="st2" d="M119.6,169c0-13.5,0.1-27-0.1-40.5c-0.1-4.1,0.9-5.1,5.1-5.2c13.8-0.2,26.7,1,38,10.5c7.4,6.2,12,13.9,14.5,23
		c9.1,33.5-16.8,61.1-44,60.1c-13.7-0.5-13.7-0.1-13.7-14.3C119.6,191.5,119.6,180.2,119.6,169z"/>
</g>
</svg>
