<?xml version="1.0" encoding="utf-8"?>
<!-- Generator: Adobe Illustrator 26.0.3, SVG Export Plug-In . SVG Version: 6.00 Build 0)  -->
<svg version="1.1" id="Layer_1" xmlns="http://www.w3.org/2000/svg" xmlns:xlink="http://www.w3.org/1999/xlink" x="0px" y="0px"
	 viewBox="0 0 1594.7 655.2" style="enable-background:new 0 0 1594.7 655.2;" xml:space="preserve">
<style type="text/css">
	.st0{display:none;fill:#4498D7;}
	.st1{fill:#FDFDFD;}
	.st2{fill:#FDFEFE;}
	.st3{fill:#FDFEFD;}
	.st4{fill:#FBFCFD;}
	.st5{fill:#EB6560;}
	.st6{fill:#FEFEFE;}
	.st7{fill:#4682A9;}
	.st8{fill:#A0D1EC;}
	.st9{fill:#497FA4;}
	.st10{fill:#487EA4;}
	.st11{fill:#497D9E;}
	.st12{fill:#9CCFEA;}
	.st13{fill:#A1D1EC;}
	.st14{fill:#9DD2ED;}
	.st15{fill:#A1D2ED;}
</style>
<rect y="-1.2" class="st0" width="1594.7" height="656.4"/>
<g>
	<path class="st1" d="M1382.7,453c0,64.4,0,128.7,0.2,193.1c0,4.6-1.2,6.4-6.1,6.6c-7,0.4-11.9-1.6-16.6-7.1
		c-23-27-46.5-53.6-69.7-80.3c-15.1-17.4-30.2-34.9-45.4-52.3c-1.4-1.6-2.8-4.4-5.4-3.6c-3.2,1-2.1,4.2-2.1,6.5
		c-0.1,41.9,0,83.8-0.1,125.8c0,9.9-0.3,10.2-9.9,10.1c-18.6-0.3-16.8,3.1-16.8-16.8c-0.1-57.5-0.1-115,0.1-172.5
		c0-3.7-2.4-9.5,2.9-10.7c5.7-1.4,12.1-2.2,17,3.7c14,16.6,28.5,32.9,42.7,49.3c24.6,28.3,49.1,56.7,73.7,85
		c1.8,2.1,3.4,6.1,6.7,4.9c3.4-1.2,1.8-5.2,1.9-8c0.1-41,0-82,0.1-123c0-10.7,0-10.7,11-10.7c5.3,0,10.5,0.1,15.8,0.1L1382.7,453z"
		/>
	<path class="st1" d="M442.5,600.1c-24-27.6-48-55.2-72.1-82.7c-2.7-3.1-5.1-9-9.6-7.4c-4.1,1.5-1.9,7.4-1.9,11.3
		c-0.1,40.5-0.1,81.1-0.1,121.6c0,8.7-0.4,9.2-8.8,9c-20.1-0.3-18,3.1-18.1-17.7c-0.1-57.5-0.1-114.9,0.1-172.4
		c0-3.5-2.1-8.9,3.2-9.9c5.3-1,11.5-2.5,16,2.8c7.1,8.1,14.2,16.1,21.2,24.3c25.5,29.6,51,59.2,76.6,88.8
		c7.6,8.8,15.5,17.4,23.2,26.1c1,1.1,1.9,3.2,3.7,2.2c0.9-0.5,1.4-2.3,1.6-3.6c0.3-2.7,0.5-5.5,0.5-8.2c0.1-43.7,0.2-87.5,0.2-131.2
		l0,0.1c6.4,0,12.8,0.2,19.2-0.1c5.4-0.3,7.2,1.8,7.1,7.1c-0.2,18.3-0.1,36.6-0.1,54.9c0,42.8,0.1,85.5,0,128.3
		c0,3.1,1.6,8.1-2.7,8.8c-5.1,0.8-11.1,2.9-15.5-2c-9.2-10.2-18.1-20.6-27.2-30.9c-2.6-3.4-6.1-5.9-8.4-9.5l0,0
		C448.3,606.2,444.7,603.6,442.5,600.1z"/>
	<path class="st1" d="M131.7,630.5c-12.5,11.7-27.2,19-44.1,22c-25.5,4.6-51.1,1.1-76.7,2.2c-1.5,0.1-3.5,0.5-4.3-1.3
		c-0.7-1.7,0.9-3,2-4c6.7-6.2,13.5-12.4,20.2-18.6c2.3-2.1,5.1-1.7,7.8-1.8c12.8-0.5,25.6,0.3,38.4-0.8
		c26.8-2.2,44.2-16.8,55.3-40.1c14.1-29.7,9.7-76.7-22.1-100.2c-8.9-6.5-18.6-11-29.6-11.5c-14.6-0.6-29.3-0.3-44-0.6
		c-5.6-0.1-6.3,3-6.2,7.4c0.1,22.4-0.1,44.9,0.1,67.3c0.1,5.5-1.5,9.7-5.6,13.2c-5.6,4.7-11.1,9.5-16.6,14.3c-2.5,2.2-4,1.9-4.1-1.7
		c-0.1-1.6-0.1-3.2-0.1-4.8c0-37.8,0.1-75.6-0.1-113.3c-0.1-6.7,1.5-9.2,8.7-9.1c20.6,0.5,41.3-0.8,61.8,0.3
		c31.4,1.8,57,15.4,75.1,41.7c19,27.7,22.2,58.1,14.6,89.9c-3.7,15.4-10.8,29.5-22.1,41.1C137.5,625.2,134.8,628,131.7,630.5z"/>
	<path class="st2" d="M898.7,506.7c-14-20.7-32.9-31.7-58.4-30.9c-10.5,0.3-21.1,0.3-31.6,0c-5.7-0.2-7.6,2.1-7.5,7.6
		c0.2,22.4-0.1,44.9,0.2,67.3c0.1,6-1.8,10.4-6.6,14.1c-6.3,4.8-12.1,10.2-18.2,15.4c-2.3-2.7-1.6-5.3-1.6-7.7
		c-0.1-38.2,0.1-76.5-0.2-114.7c0-6.5,1.6-8.8,8.4-8.6c20.8,0.4,41.7-0.9,62.5,0.3c31.7,1.8,57.2,15.8,75.4,42.3
		c27,39.3,23.3,96.5-9,131.6c-14.6,15.9-32.4,26.2-54.3,29.4c-25.1,3.7-50.3,0.8-75.4,1.8c-1.3,0-3.1,0.3-3.4-1.4
		c-0.1-0.9,0.7-2.2,1.5-2.9c7.2-6.6,14.5-13.2,21.8-19.8c2.3-2,5.2-1.5,7.9-1.6c13-0.5,26,0.4,39.1-0.9c16.4-1.6,29.6-8.7,41.1-19.7
		c8.2-9.7,14.7-20.5,17.9-32.7c2.4-9.1,3.7-18.7,2.8-28.4C909.9,532.9,906.8,519,898.7,506.7z"/>
	<path class="st3" d="M696.6,469.3c-3.6,5.2-8.5,6.8-14.7,6.6c-12.4-0.3-24.8-0.4-37.1,0.3c-20.1,1.1-36,10.8-46.8,27.4
		c-20.4,31.5-20,64.2-1,95.9c9.3,15.5,24.3,25.2,43,27.9c15.5,2.2,31.1,1.2,46.6,1.6c5.6,0.2,6.3-3,6.3-7.4
		c-0.1-18.1,0.1-36.2-0.2-54.3c-0.1-5.6,1.5-9.5,6-12.8c5.1-3.8,9.7-8.4,14.6-12.5c1.4-1.2,2.7-2.9,4.7-2.2c2.2,0.8,1.7,3,1.7,4.8
		c0,34.6,0,69.2,0.1,103.8c0,4.9-2.2,6.4-6.7,6.4c-22.2-0.1-44.5,1.1-66.7-0.3c-46.4-3-82.2-37.3-89.6-83.3c-2.7-17-2-33.9,2.8-50.4
		c9.6-33.3,37.3-63.4,75.6-69.5c25.1-4,50.3-0.9,75.4-1.8c1.6-0.1,3.5-0.3,4.3,1.4c1,2.2-1,3.3-2.3,4.4c-2.9,2.5-5.9,5-8.9,7.6
		C701.6,465.1,699.6,467.7,696.6,469.3z"/>
	<path class="st2" d="M1594.6,596.3c0,16.9-0.2,33.9,0.1,50.8c0.1,5.6-1.7,7.8-7.4,7.7c-21.8-0.2-43.6,1.2-65.3-0.4
		c-34.7-2.4-61.8-18.9-78.5-50c-18.2-33.8-18.5-68.8-1.2-102.8c14.3-27.9,37.6-45.5,69.3-50.6c24.6-3.9,49.3-0.9,74-1.7
		c1.5,0,3.5-0.2,4.1,1.7c0.6,1.8-0.8,2.9-2,4c-6.8,6.1-13.6,12.3-20.4,18.4c-2.4,2.2-5.3,2.3-8.4,2.3c-12.1,0-24.3,0.3-36.4,0.1
		c-27.2-0.4-51.3,23-59,45c-5.9,17-7.4,34.2-3.4,51.3c6.2,26.6,24.1,50.3,55.1,55.1c15.5,2.4,31.1,0.9,46.6,1.5
		c5.5,0.2,6.4-3.1,6.4-7.5c-0.1-17.4,0.2-34.8-0.1-52.2c-0.2-7.3,1.7-12.6,8.1-16.8c4.8-3.1,8.7-7.4,13-11.2c1.2-1,2.4-2.6,4.1-2
		c2.2,0.8,1.4,3.2,1.4,4.8C1594.6,561.5,1594.6,578.9,1594.6,596.3z"/>
	<path class="st4" d="M231,552.7c0-30.4,0.2-60.9-0.1-91.3c-0.1-6.6,2-8.6,8.5-8.6c18.5,0.2,18.5-0.1,18.5,18.3
		c0,57,0,113.9,0,170.9c0,9.8,0,9.9-10.1,9.8c-19.1-0.1-16.7,2.2-16.8-16.8C230.9,607.6,231,580.1,231,552.7
		C231,552.7,231,552.7,231,552.7z"/>
	<g>
		<path class="st5" d="M622.3,302.7c-1,1-1.9,3-3.9,1.6c-1.4-0.9-2.3-2.1-2.3-4c0.1-1.4,0-175.4,0-261c0-0.2,0-0.5,0-0.7
			c0.3-2.4-1-5.7,2-6.7c3.3-1.1,65.5,62.2,72,70.3v0c6.9,4.2,9.9,9.8,9.7,18.5c-0.6,31.7-0.6,63.5,0,95.2c0.2,8.7-9.7,18.5-9.7,18.5
			C683.5,242.8,630.2,294.7,622.3,302.7z"/>
		<path class="st6" d="M645.6-0.2c3.9-1.5,7.4-0.9,10.7-0.9c33.4-0.1,66.9,0.2,100.3-0.1c19.7-0.2,38.6,2.5,57,9.7
			c3.9,1.5,6.8,2.6,3.1,7.5c-8.2,10.9-38.1,52.2-44.8,62c-2.6,3.7-5,5.8-10,5.5c-9.6-0.5-19.2-0.3-28.9-0.3c-3.1,0-5.8-0.4-8.1-2.8
			c-26-26.1-52.1-52.1-78.1-78.2C646.4,1.7,646.2,1,645.6-0.2z"/>
		<path class="st6" d="M646.5,336.8c14.3-17.1,66.5-68,76.8-78.7c2.9-3,6-4.4,10.2-4.4c10.1,0,20.1,0.8,30.2-0.5
			c3.3-0.4,5.1,1.4,6.8,3.7c14.8,20.2,29.7,40.4,44.5,60.6c6,8.1,5.5,8-3.7,11.6c-20.5,8-41.8,9.2-63.4,9c-30.7-0.2-61.3,0-92-0.1
			C653.1,337.9,650,338.6,646.5,336.8z"/>
		<path class="st6" d="M923,144.3c1,4.3-1.8,5-5.2,5c-9.6,0-59,0-74.2,0c-3.7,0-6.8-0.5-7.9-4.8c-3.4-13.3-10.8-24.4-20.1-34.3
			c-11.3-12-11.4-11.7-1.5-25.2c11.8-15.9,23.4-32,35-48.1c4.8-6.7,5.3-7,11.6-1.8c20.3,16.6,42.3,45.6,47.6,60.5
			C914.8,107.9,920.7,134,923,144.3z"/>
		<path class="st6" d="M917.1,187.3c5.3-0.1,6.6,1.7,5.8,7c-7.1,43.6-28.1,79.1-62,107.2c-6.3,5.2-6.7,4.9-11.6-1.8
			c-14.1-19.3-28.3-38.7-42.6-57.8c-2.9-3.9-0.7-5.7,1.7-8c10.9-10.3,21.2-21.4,25.2-36.1c2.7-10,8.5-11.1,17-10.6
			C860.3,187.8,904.7,187.5,917.1,187.3z"/>
		<path class="st2" d="M739.1,167.2c0-13.5,0.1-27-0.1-40.5c-0.1-4.1,0.9-5.1,5.3-5.2c14.2-0.2,27.6,1,39.3,10.5
			c7.6,6.2,12.4,13.9,15,23c9.4,33.5-17.4,61.1-45.4,60.1c-14.1-0.5-14.1-0.1-14.1-14.3C739.1,189.7,739.1,178.5,739.1,167.2z"/>
	</g>
	<path class="st7" d="M1382.8,453.1c4.2-0.4,2.7,2.9,2.8,4.7c0.2,5.9,0.1,11.9,0.1,17.8c0,55.1,0,110.3,0,165.4c0,2.7,0,5.4,0,8.2
		c-0.5,0-0.9,0.1-1.4,0.1c0-2.4,0-4.8,0-7.3c0-59.9,0-119.9,0-179.8c0-3.1,0.7-6.5-1.5-9.3C1382.7,453,1382.8,453.1,1382.8,453.1z"
		/>
	<path class="st8" d="M898.7,506.7c6.8,5.1,8.2,13.3,10.2,20.4c7.6,28.2,3.4,54.7-14.7,78.3c-1,1.2-1.8,2.7-3.6,2.9
		c1.5-5.7,6-9.6,8.8-14.5c10-17.4,11.9-35.9,9.6-55.5C907.8,527,902.3,517.2,898.7,506.7z"/>
	<path class="st9" d="M478.2,453c-2.2,2.8-1.4,6.1-1.5,9.3c0,39.8,0,79.6,0,119.4c0,2.5,0,4.9,0,8.2c-2-2.3-1.3-4.1-1.3-5.7
		c0-41.4-0.1-82.8,0.1-124.2C475.5,457.6,473.2,453.6,478.2,453C478.2,453.1,478.2,453,478.2,453z"/>
	<path class="st10" d="M772.6,578c0-42,0-84,0-126c0.2,0,0.4,0,0.6,0c0,42,0,83.9,0,125.9C773,577.9,772.8,577.9,772.6,578z"/>
	<ellipse class="st11" cx="0.3" cy="514.9" rx="0.4" ry="89.4"/>
	<path class="st12" d="M442.5,600.1c3.8,2.4,6.7,5.4,8.2,9.7C446.8,607.4,443.5,604.7,442.5,600.1z"/>
	<path class="st12" d="M450.6,609.7c3.7,2.3,6.8,5.2,8.4,9.5C455.3,616.9,452,614.2,450.6,609.7z"/>
	<path class="st13" d="M131.7,630.5c1.9-3.6,4.7-6.4,8.3-8.2C139,626.7,135.7,628.9,131.7,630.5z"/>
	<path class="st14" d="M696.6,469.3c1.7-3,4.2-5.1,7.2-6.5C702.8,466.6,700.6,468.9,696.6,469.3z"/>
	<path class="st1" d="M1152.5,496.1c-19.8-31.8-48.7-47.3-85.5-46.4c-37.9,0.9-66.5,19.3-83.6,53c-16.1,31.9-16.3,65.2-0.7,97.3
		c16.3,33.4,43.9,51.9,81.3,54.5c20.7,1.5,40.4-3.1,57.5-14.5c31-20.7,46-50.5,46-94.6C1167.9,532,1163.3,513.4,1152.5,496.1z
		 M1138.3,570c-4,19.9-13.5,36.8-30.9,48.2c-27.3,17.9-70,13.2-91.1-15c-26.7-35.7-20.5-92,15.1-116.4c3.4-2.3,6.9-4.3,10.4-6.5
		c14.3-5.1,29-6,43.8-3.4c19.7,3.5,33.5,15.5,43.5,32.2c1.2,2,2.4,3.9,3.6,5.8C1140,532.7,1142,551.2,1138.3,570z"/>
	<path class="st15" d="M1132.5,514.9c-2.2-1-3.2-3.1-4.4-5.1c-17-29.4-44.8-37.5-75.7-31.3c-3.6,0.7-7,2.1-10.7,1.8
		c19.3-8.4,38.7-7.9,57.7,0.2C1115.1,487.1,1126.4,498.8,1132.5,514.9z"/>
</g>
</svg>
