<?xml version="1.0" encoding="utf-8"?>
<!-- Generator: Adobe Illustrator 26.0.3, SVG Export Plug-In . SVG Version: 6.00 Build 0)  -->
<svg version="1.1" id="Layer_1" xmlns="http://www.w3.org/2000/svg" xmlns:xlink="http://www.w3.org/1999/xlink" x="0px" y="0px"
	 viewBox="0 0 288 288" style="enable-background:new 0 0 288 288;" xml:space="preserve">
<style type="text/css">
	.st0{display:none;fill:#0199DC;}
	.st1{fill:#EB6560;}
	.st2{fill:#E4F2F7;}
</style>
<rect x="-647.9" y="-70.3" class="st0" width="1594.7" height="656.4"/>
<g>
	<path class="st1" d="M5.8,257.9c-0.9,0.8-1.8,2.5-3.7,1.4c-1.3-0.8-2.2-1.8-2.2-3.4C0.1,254.7,0,107,0,34.4c0-0.2,0-0.4,0-0.6
		c0.3-2-0.9-4.8,1.9-5.7C5,27.2,63.3,80.9,69.4,87.8l0,0c6.5,3.6,9.3,8.3,9.1,15.7c-0.6,26.9-0.6,53.9,0,80.8
		c0.2,7.4-9.1,15.7-9.1,15.7C63.2,207.1,13.3,251.1,5.8,257.9z"/>
	<path class="st2" d="M27.7,0.9c3.7-1.3,6.9-0.8,10-0.8c31.4,0,62.7,0.3,94.1-0.1c18.5-0.2,36.2,2.1,53.4,8.2
		c3.7,1.3,6.4,2.2,2.9,6.4c-7.7,9.3-35.7,44.3-42,52.6c-2.4,3.1-4.7,4.9-9.4,4.7c-9-0.4-18-0.3-27.1-0.3c-2.9,0-5.4-0.3-7.6-2.4
		C77.7,47.1,53.3,25,28.9,2.9C28.4,2.5,28.2,1.9,27.7,0.9z"/>
	<path class="st2" d="M28.6,286.9c13.4-14.5,62.3-57.7,72-66.8c2.7-2.5,5.6-3.7,9.6-3.7c9.5,0,18.8,0.7,28.3-0.4
		c3.1-0.3,4.8,1.2,6.4,3.1c13.9,17.1,27.8,34.3,41.7,51.4c5.6,6.9,5.2,6.8-3.5,9.8c-19.2,6.8-39.2,7.8-59.4,7.6
		c-28.8-0.2-57.5,0-86.2-0.1C34.7,287.8,31.9,288.4,28.6,286.9z"/>
	<path class="st2" d="M287.8,123.5c0.9,3.6-1.7,4.2-4.9,4.2c-9,0-55.3,0-69.6,0c-3.5,0-6.4-0.4-7.4-4.1
		c-3.2-11.3-10.1-20.7-18.8-29.1c-10.6-10.2-10.7-9.9-1.4-21.4c11.1-13.5,21.9-27.2,32.8-40.8c4.5-5.7,5-5.9,10.9-1.5
		c19.1,14.3,39.7,38.8,44.7,51.5C280,92.6,285.6,114.8,287.8,123.5z"/>
	<path class="st2" d="M282.2,160c5-0.1,6.2,1.4,5.4,5.9c-6.7,37-26.3,67.1-58.1,91c-5.9,4.4-6.3,4.2-10.9-1.5
		c-13.2-16.4-26.5-32.8-39.9-49.1c-2.7-3.3-0.7-4.8,1.6-6.8c10.2-8.7,19.9-18.2,23.6-30.6c2.5-8.5,8-9.4,15.9-9
		C228.9,160.4,270.6,160.2,282.2,160z"/>
	<path class="st2" d="M115.3,142.9c0-11.5,0.1-22.9-0.1-34.4c-0.1-3.5,0.8-4.3,5-4.4c13.3-0.2,25.9,0.8,36.8,8.9
		c7.1,5.3,11.6,11.8,14.1,19.5c8.8,28.4-16.3,51.9-42.6,51c-13.2-0.4-13.2-0.1-13.2-12.1C115.3,162,115.3,152.5,115.3,142.9z"/>
</g>
</svg>
