<svg width="81" height="81" viewBox="0 0 81 81" fill="none" xmlns="http://www.w3.org/2000/svg">
<path d="M31.1536 38.1667V52.8334C31.1536 53.3196 30.9605 53.7859 30.6167 54.1297C30.2729 54.4736 29.8065 54.6667 29.3203 54.6667H25.6536C25.1674 54.6667 24.7011 54.4736 24.3573 54.1297C24.0135 53.7859 23.8203 53.3196 23.8203 52.8334V40C23.8203 39.5138 24.0135 39.0475 24.3573 38.7037C24.7011 38.3599 25.1674 38.1667 25.6536 38.1667H31.1536ZM31.1536 38.1667C33.0986 38.1667 34.9638 37.3941 36.3391 36.0188C37.7144 34.6436 38.487 32.7783 38.487 30.8334V29C38.487 28.0276 38.8733 27.0949 39.5609 26.4073C40.2486 25.7197 41.1812 25.3334 42.1536 25.3334C43.1261 25.3334 44.0587 25.7197 44.7464 26.4073C45.434 27.0949 45.8203 28.0276 45.8203 29V38.1667H51.3203C52.2928 38.1667 53.2254 38.553 53.913 39.2407C54.6007 39.9283 54.987 40.8609 54.987 41.8334L53.1536 51C52.89 52.1247 52.3898 53.0905 51.7285 53.7518C51.0672 54.4131 50.2805 54.7342 49.487 54.6667H36.6536C35.195 54.6667 33.796 54.0872 32.7646 53.0558C31.7331 52.0243 31.1536 50.6254 31.1536 49.1667" stroke="#0199dc" stroke-width="2" stroke-linecap="round" stroke-linejoin="round"/>
<circle cx="40.3203" cy="40.0044" r="39.5" stroke="#0199dc"/>
</svg>
