<svg width="81" height="80" viewBox="0 0 81 80" fill="none" xmlns="http://www.w3.org/2000/svg">
<path d="M40.3203 56.5C49.433 56.5 56.8203 49.1127 56.8203 40C56.8203 30.8873 49.433 23.5 40.3203 23.5C31.2076 23.5 23.8203 30.8873 23.8203 40C23.8203 49.1127 31.2076 56.5 40.3203 56.5Z" stroke="#0199dc" stroke-width="2" stroke-linecap="round" stroke-linejoin="round"/>
<path d="M24.9199 34.5H55.7199" stroke="#0199dc" stroke-width="2" stroke-linecap="round" stroke-linejoin="round"/>
<path d="M24.9199 45.5H55.7199" stroke="#0199dc" stroke-width="2" stroke-linecap="round" stroke-linejoin="round"/>
<path d="M39.4037 23.5C36.3151 28.4493 34.6777 34.1661 34.6777 40C34.6777 45.8339 36.3151 51.5507 39.4037 56.5" stroke="#0199dc" stroke-width="2" stroke-linecap="round" stroke-linejoin="round"/>
<path d="M41.2373 23.5C44.3258 28.4493 45.9633 34.1661 45.9633 40C45.9633 45.8339 44.3258 51.5507 41.2373 56.5" stroke="#0199dc" stroke-width="2" stroke-linecap="round" stroke-linejoin="round"/>
<circle cx="40.3203" cy="40" r="39.5" stroke="#0199dc"/>
</svg>
