<svg width="81" height="80" viewBox="0 0 81 80" fill="none" xmlns="http://www.w3.org/2000/svg">
<path d="M49.4867 32.6666V27.1666C49.4867 26.6804 49.2935 26.214 48.9497 25.8702C48.6059 25.5264 48.1396 25.3333 47.6533 25.3333H29.32C28.3475 25.3333 27.4149 25.7196 26.7273 26.4072C26.0396 27.0948 25.6533 28.0275 25.6533 28.9999M25.6533 28.9999C25.6533 29.9724 26.0396 30.905 26.7273 31.5926C27.4149 32.2803 28.3475 32.6666 29.32 32.6666H51.32C51.8062 32.6666 52.2725 32.8597 52.6164 33.2036C52.9602 33.5474 53.1533 34.0137 53.1533 34.4999V39.9999M25.6533 28.9999V50.9999C25.6533 51.9724 26.0396 52.905 26.7273 53.5926C27.4149 54.2803 28.3475 54.6666 29.32 54.6666H51.32C51.8062 54.6666 52.2725 54.4734 52.6164 54.1296C52.9602 53.7858 53.1533 53.3195 53.1533 52.8332V47.3333" stroke="#0199dc" stroke-width="2" stroke-linecap="round" stroke-linejoin="round"/>
<path d="M54.9873 40V47.3333H47.654C46.6815 47.3333 45.7489 46.947 45.0612 46.2594C44.3736 45.5718 43.9873 44.6391 43.9873 43.6667C43.9873 42.6942 44.3736 41.7616 45.0612 41.0739C45.7489 40.3863 46.6815 40 47.654 40H54.9873Z" stroke="#0199dc" stroke-width="2" stroke-linecap="round" stroke-linejoin="round"/>
<circle cx="40.3203" cy="40" r="39.5" stroke="#0199dc"/>
</svg>
